<?xml version="1.0" encoding="UTF-8"?>
<!DOCTYPE svg PUBLIC "-//W3C//DTD SVG 1.1//EN" "http://www.w3.org/Graphics/SVG/1.1/DTD/svg11.dtd">
<!-- Creator: CorelDRAW X7 -->
<svg xmlns="http://www.w3.org/2000/svg" xml:space="preserve" width="1402px" height="652px" version="1.1" style="shape-rendering:geometricPrecision; text-rendering:geometricPrecision; image-rendering:optimizeQuality; fill-rule:evenodd; clip-rule:evenodd"
viewBox="0 0 1402 652"
 xmlns:xlink="http://www.w3.org/1999/xlink">
 <defs>
  <style type="text/css">
   <![CDATA[
    .str0 {stroke:#141515;stroke-width:2.36159}
    .fil1 {fill:none}
    .fil0 {fill:black}
   ]]>
  </style>
   <clipPath id="id0">
    <path d="M1 1l1400 0 0 650 -1400 0 0 -650z"/>
   </clipPath>
    <clipPath id="id1">
     <path d="M1 1l205 0 0 650 -205 0 0 -650z"/>
    </clipPath>
    <clipPath id="id2">
     <path d="M1 1l1400 0 0 650 -1400 0 0 -650z"/>
    </clipPath>
    <clipPath id="id3">
     <path d="M387 651l-247 0 0 -473 247 0 0 473z"/>
    </clipPath>
    <clipPath id="id4">
     <path d="M1 1l1400 0 0 650 -1400 0 0 -650z"/>
    </clipPath>
    <clipPath id="id5">
     <path d="M378 1l350 0 0 650 -350 0 0 -650z"/>
    </clipPath>
    <clipPath id="id6">
     <path d="M1 1l1400 0 0 650 -1400 0 0 -650z"/>
    </clipPath>
    <clipPath id="id7">
     <path d="M909 651l-247 0 0 -473 247 0 0 473z"/>
    </clipPath>
    <clipPath id="id8">
     <path d="M1 1l1400 0 0 650 -1400 0 0 -650z"/>
    </clipPath>
    <clipPath id="id9">
     <path d="M900 1l350 0 0 650 -350 0 0 -650z"/>
    </clipPath>
    <clipPath id="id10">
     <path d="M1 1l1400 0 0 650 -1400 0 0 -650z"/>
    </clipPath>
    <clipPath id="id11">
     <path d="M1401 178l0 473 -217 0 0 -473 217 0z"/>
    </clipPath>
    <clipPath id="id12">
     <path d="M1 1l1400 0 0 650 -1400 0 0 -650z"/>
    </clipPath>
 </defs>
 <g id="Camada_x0020_1">
  <metadata id="CorelCorpID_0Corel-Layer"/>
  <polygon class="fil0" points="1,1 1401,1 1401,651 1,651 "/>
  <g style="clip-path:url(#id0)">
   <g id="_2626999443328">
   </g>
   <g style="clip-path:url(#id1)">
    <image x="-144" y="-58" width="350" height="720" xlink:href="fundo-home_Images\fundo-home_ImgID1.png"/>
   </g>
   <g style="clip-path:url(#id2)">
   </g>
   <g style="clip-path:url(#id3)">
    <image x="140" y="178" width="248" height="477" xlink:href="fundo-home_Images\fundo-home_ImgID2.png"/>
   </g>
   <g style="clip-path:url(#id4)">
   </g>
   <g style="clip-path:url(#id5)">
    <image x="378" y="-58" width="350" height="720" xlink:href="fundo-home_Images\fundo-home_ImgID3.png"/>
   </g>
   <g style="clip-path:url(#id6)">
   </g>
   <g style="clip-path:url(#id7)">
    <image x="662" y="178" width="248" height="477" xlink:href="fundo-home_Images\fundo-home_ImgID4.png"/>
   </g>
   <g style="clip-path:url(#id8)">
   </g>
   <g style="clip-path:url(#id9)">
    <image x="900" y="-58" width="350" height="720" xlink:href="fundo-home_Images\fundo-home_ImgID5.png"/>
   </g>
   <g style="clip-path:url(#id10)">
   </g>
   <g style="clip-path:url(#id11)">
    <image x="1184" y="178" width="248" height="477" xlink:href="fundo-home_Images\fundo-home_ImgID6.png"/>
   </g>
   <g style="clip-path:url(#id12)">
   </g>
  </g>
  <polygon class="fil1 str0" points="1,1 1401,1 1401,651 1,651 "/>
 </g>
</svg>
