<?xml version="1.0" encoding="UTF-8"?>
<!DOCTYPE svg PUBLIC "-//W3C//DTD SVG 1.1//EN" "http://www.w3.org/Graphics/SVG/1.1/DTD/svg11.dtd">
<!-- Creator: CorelDRAW X7 -->
<svg xmlns="http://www.w3.org/2000/svg" xml:space="preserve" width="473px" height="278px" version="1.1" style="shape-rendering:geometricPrecision; text-rendering:geometricPrecision; image-rendering:optimizeQuality; fill-rule:evenodd; clip-rule:evenodd"
viewBox="0 0 341 201"
 xmlns:xlink="http://www.w3.org/1999/xlink">
 <defs>
  <style type="text/css">
   <![CDATA[
    .fil0 {fill:#ED6F74}
    .fil1 {fill:#F8A1AC}
   ]]>
  </style>
 </defs>
 <g id="Camada_x0020_1">
  <metadata id="CorelCorpID_0Corel-Layer"/>
  <g id="_2241580860304">
   <path class="fil0" d="M61 114c1,5 -6,40 -8,47 -1,7 -3,15 -5,22 -1,3 -2,6 -4,10 0,1 -1,2 -2,4 -1,1 0,1 -1,2 -1,1 -1,0 -2,2 15,0 29,0 44,0 6,0 9,1 13,-11 8,-22 15,-66 19,-92 0,-2 2,-9 1,-11 2,-6 3,-17 4,-23 3,-16 8,-42 14,-56 2,-4 2,-5 5,-8 -15,0 -29,0 -44,0 -7,0 -8,0 -13,11 -2,6 -4,12 -5,19 -3,9 -15,76 -16,84z"/>
   <path class="fil0" d="M171 105l-15 76c-5,17 -8,16 -9,20 14,0 29,0 43,0 7,0 8,1 13,-11 6,-15 16,-71 19,-92 2,-18 6,-39 10,-57 2,-11 5,-23 9,-33 2,-6 3,-5 5,-8l-47 0c-2,0 -2,0 -4,1 -2,2 -3,4 -5,7 -7,16 -15,67 -18,87 0,2 -2,9 -1,10z"/>
   <path class="fil1" d="M223 87c2,2 3,13 3,16 1,5 2,10 3,15 2,17 10,59 16,74 1,2 2,4 3,6 2,2 3,3 6,3 2,-4 9,-2 16,-39 2,-15 3,-23 7,-37l3 -6c-2,-2 -3,-14 -3,-18 -1,-5 -2,-10 -3,-16 -3,-20 -10,-59 -17,-77 -4,-8 -6,-8 -11,-8 -2,3 -3,2 -5,8 -4,10 -7,22 -9,33 -2,9 -8,41 -9,46z"/>
   <path class="fil1" d="M116 87l3 16c1,5 2,10 3,15 2,16 11,68 19,80 2,2 2,3 6,3 1,-4 4,-3 9,-20l14 -73 1 -3c0,0 -1,0 -1,-1l-5 -28c-2,-16 -7,-41 -12,-57 -1,-5 -4,-14 -7,-17 -2,-2 -4,-2 -7,-2 -3,3 -3,4 -5,8 -6,14 -11,40 -14,56l-4 23z"/>
   <path class="fil0" d="M280 119l-3 6c-4,14 -5,22 -7,37 -7,37 -14,35 -16,39l47 0c3,0 2,0 4,-2 16,-19 7,-50 19,-75l4 -7c1,-1 2,-2 3,-3 3,-2 7,-5 10,-6l0 -1c-7,0 -47,-1 -52,1 -4,1 -9,7 -9,11z"/>
   <path class="fil1" d="M39 201c1,-2 1,-1 2,-2 1,-1 0,-1 1,-2 1,-2 2,-3 2,-4 2,-4 3,-7 4,-10 2,-7 4,-15 5,-22 2,-7 9,-42 8,-47l-2 -2c-3,-3 -4,-4 -9,-5 -3,0 -44,0 -50,0l0 1c3,0 8,4 9,6 4,4 4,6 7,10 1,2 1,4 2,6 9,22 10,71 21,71z"/>
  </g>
 </g>
</svg>
